HIERARCHY
ROOT joint_Root
{
  OFFSET 0 0 0
  CHANNELS 6 Xposition Yposition Zposition Zrotation Xrotation Yrotation
  JOINT Hips
  {
    OFFSET 0 93.9241 -3
    CHANNELS 6 Xposition Yposition Zposition Zrotation Xrotation Yrotation
    JOINT Spine
    {
      OFFSET 15.7357 0 0
      CHANNELS 6 Xposition Yposition Zposition Zrotation Xrotation Yrotation
      JOINT Chest
      {
        OFFSET 8.98455 -0.406207 0
        CHANNELS 6 Xposition Yposition Zposition Zrotation Xrotation Yrotation
        JOINT Neck
        {
          OFFSET 16.3773 0 0
          CHANNELS 6 Xposition Yposition Zposition Zrotation Xrotation Yrotation
          JOINT Head
          {
            OFFSET 6.45672 0 0
            CHANNELS 6 Xposition Yposition Zposition Zrotation Xrotation Yrotation
            End Site
            {
              OFFSET 0 0 0
            }
          }
        }
        JOINT Shoulder_L
        {
          OFFSET 12.9942 -0.242716 4.98039
          CHANNELS 6 Xposition Yposition Zposition Zrotation Xrotation Yrotation
          JOINT UpperArm_L
          {
            OFFSET 5.34809 0 0
            CHANNELS 6 Xposition Yposition Zposition Zrotation Xrotation Yrotation
            JOINT LowerArm_L
            {
              OFFSET 24.3286 1.87007e-05 0
              CHANNELS 6 Xposition Yposition Zposition Zrotation Xrotation Yrotation
              JOINT Hand_L
              {
                OFFSET 22.2916 0 0
                CHANNELS 6 Xposition Yposition Zposition Zrotation Xrotation Yrotation
                End Site
                {
                  OFFSET 0 0 0
                }
              }
            }
          }
        }
        JOINT Shoulder_R
        {
          OFFSET 12.9945 -0.242716 -4.98039
          CHANNELS 6 Xposition Yposition Zposition Zrotation Xrotation Yrotation
          JOINT UpperArm_R
          {
            OFFSET -5.34813 0 0
            CHANNELS 6 Xposition Yposition Zposition Zrotation Xrotation Yrotation
            JOINT LowerArm_R
            {
              OFFSET -24.3289 0.000322201 0
              CHANNELS 6 Xposition Yposition Zposition Zrotation Xrotation Yrotation
              JOINT Hand_R
              {
                OFFSET -22.2915 -0.000108084 0
                CHANNELS 6 Xposition Yposition Zposition Zrotation Xrotation Yrotation
                End Site
                {
                  OFFSET 0 0 0
                }
              }
            }
          }
        }
      }
    }
    JOINT UpperLeg_L
    {
      OFFSET -2.19248 -6.46944 0
      CHANNELS 6 Xposition Yposition Zposition Zrotation Xrotation Yrotation
      JOINT LowerLeg_L
      {
        OFFSET 39.0811 0 -1.23785e-05
        CHANNELS 6 Xposition Yposition Zposition Zrotation Xrotation Yrotation
        JOINT Foot_L
        {
          OFFSET 40.9854 0 -1.26872e-05
          CHANNELS 6 Xposition Yposition Zposition Zrotation Xrotation Yrotation
          JOINT Toes_L
          {
            OFFSET 11.7543 0 0
            CHANNELS 6 Xposition Yposition Zposition Zrotation Xrotation Yrotation
            End Site
            {
              OFFSET 0 0 0
            }
          }
        }
      }
    }
    JOINT UpperLeg_R
    {
      OFFSET -2.19251 6.46944 0
      CHANNELS 6 Xposition Yposition Zposition Zrotation Xrotation Yrotation
      JOINT LowerLeg_R
      {
        OFFSET -39.0811 -0.00228153 -0.0401928
        CHANNELS 6 Xposition Yposition Zposition Zrotation Xrotation Yrotation
        JOINT Foot_R
        {
          OFFSET -40.9854 0 0
          CHANNELS 6 Xposition Yposition Zposition Zrotation Xrotation Yrotation
          JOINT Toes_R
          {
            OFFSET -11.7543 0 0
            CHANNELS 6 Xposition Yposition Zposition Zrotation Xrotation Yrotation
            End Site
            {
              OFFSET 0 0 0
            }
          }
        }
      }
    }
  }
}
MOTION
Frames:	4
Frame Time:	0.0333333
0 0 0 0 0 -0 6.96318 90.9964 -464.679 92.6074 1.49762 5.51754 15.7357 5.1072e-06 -5.51765e-07 92.0362 76.2126 -90.6702 8.98455 -0.406207 -4.3199e-07 19.7819 1.10079 2.54822 16.3773 -1.3905e-06 -6.99897e-07 -4.70261 8.3682 0.153137 6.45672 -1.25837e-06 -1.02172e-07 -0.256838 11.0374 -6.566 12.9942 -0.242716 4.98039 -90.0947 0.92054 -99.1268 5.34809 -7.22636e-06 -6.2814e-07 -74.952 23.0233 1.31266 24.3286 1.87007e-05 4.90208e-06 31.029 -13.1032 -110.65 22.2916 -9.88446e-07 4.63217e-06 11.8749 5.29307 0.2655 12.9945 -0.242716 -4.98039 89.9983 0.0348783 -102.311 -5.34813 -1.25947e-06 -3.79883e-06 -71.8751 23.9122 4.2612 -24.3289 0.000322201 -8.65921e-06 22.9091 -7.35139 -106.845 -22.2915 -0.000108084 -4.47941e-06 18.2424 5.47302 -5.48238 -2.19248 -6.46944 -1.22533e-07 172.292 -1.40491 -7.59657 39.0811 -6.73843e-06 -1.23785e-05 0.0581422 -0.0640332 27.8951 40.9854 -6.48686e-06 -1.26872e-05 6.54847 1.3292 -65.1985 11.7543 -2.30145e-07 3.05095e-06 -0.073602 0.0626261 -16.5742 -2.19251 6.46944 -1.45247e-06 179.309 -2.62132 155.661 -39.0811 -0.00228153 -0.0401928 -0.329973 0.142826 66.3355 -40.9854 7.72618e-06 5.99936e-06 3.73132 -23.0301 -43.0714 -11.7543 -5.6619e-06 -5.58687e-06 0.463379 -0.512786 -20.4209 
0 0 0 0 0 -0 6.87859 91.1782 -463.673 92.1651 1.36605 5.36878 15.7357 5.1072e-06 -5.51764e-07 92.0175 76.19 -90.5258 8.98455 -0.406207 -4.3199e-07 19.8264 1.10714 2.79898 16.3773 -1.3905e-06 -6.99897e-07 -4.67758 8.66535 0.33275 6.45672 -1.25837e-06 -1.02172e-07 -0.337003 11.6088 -6.51795 12.9942 -0.242716 4.98039 -90.0832 0.826828 -99.2567 5.34809 -7.22636e-06 -6.2814e-07 -75.0413 23.0344 1.23322 24.3286 1.87007e-05 4.90208e-06 30.8739 -13.0375 -110.673 22.2916 -9.88446e-07 4.63217e-06 11.8135 5.29768 0.137513 12.9945 -0.242716 -4.98039 90.0048 -0.106819 -102.43 -5.34813 -1.25947e-06 -3.79883e-06 -71.943 24.0643 4.091 -24.3289 0.000322201 -8.65921e-06 22.9596 -7.3776 -106.862 -22.2915 -0.000108084 -4.47941e-06 17.9534 5.47091 -5.40401 -2.19248 -6.46944 -1.22533e-07 172.84 -1.37443 -6.57515 39.0811 -6.73843e-06 -1.23785e-05 0.0350191 -0.026871 27.0169 40.9854 -6.48686e-06 -1.26872e-05 6.41724 1.14601 -65.4948 11.7543 -2.30145e-07 3.05095e-06 -0.0777772 0.06607 -16.574 -2.19251 6.46944 -1.45247e-06 179.568 -4.2238 154.957 -39.0811 -0.00228153 -0.0401928 -0.295579 0.15781 61.3146 -40.9854 7.72618e-06 5.99936e-06 2.99082 -23.9351 -46.4835 -11.7543 -5.6619e-06 -5.58687e-06 0.488934 -0.543166 -20.6417 
0 0 0 0 0 -0 6.7403 91.3744 -462.734 91.7303 1.15274 5.08106 15.7357 5.1072e-06 -5.51765e-07 92.0624 76.1922 -90.479 8.98455 -0.406207 -4.3199e-07 19.8203 1.13766 2.97747 16.3773 -1.3905e-06 -6.99897e-07 -4.77758 8.91081 0.443745 6.45672 -1.25837e-06 -1.02172e-07 -0.470458 12.1079 -6.44978 12.9942 -0.242716 4.98039 -90.0727 0.733794 -99.3432 5.34809 -7.22636e-06 -6.2814e-07 -75.0401 23.1257 1.01982 24.3286 1.87007e-05 4.90208e-06 30.8574 -13.0413 -110.69 22.2916 -9.88446e-07 4.63217e-06 12.1011 5.29969 0.0815264 12.9945 -0.242716 -4.98039 90.0071 -0.162537 -102.487 -5.34813 -1.25947e-06 -3.79883e-06 -71.8541 24.2747 3.83741 -24.3289 0.000322201 -8.65921e-06 22.8719 -7.34351 -106.857 -22.2915 -0.000108084 -4.47941e-06 18.0864 5.47538 -5.57299 -2.19248 -6.46944 -1.22533e-07 173.409 -1.39073 -5.65604 39.0811 -6.73843e-06 -1.23785e-05 0.0113356 0.0137021 25.969 40.9854 -6.48686e-06 -1.26872e-05 6.25624 0.976174 -65.6643 11.7543 -2.30145e-07 3.05095e-06 -0.0930461 0.0788863 -16.5732 -2.19251 6.46944 -1.45247e-06 179.639 -5.73037 155.028 -39.0811 -0.00228153 -0.0401928 -0.222041 0.159989 53.9247 -40.9854 7.72618e-06 5.99936e-06 2.18657 -23.6408 -49.2414 -11.7543 -5.6619e-06 -5.58687e-06 0.48852 -0.542672 -20.6382 
0 0 0 0 0 -0 6.56951 91.5388 -461.834 91.4021 0.81832 4.70885 15.7357 5.1072e-06 -5.51765e-07 92.1417 76.2341 -90.5368 8.98455 -0.406207 -4.3199e-07 19.7346 1.17325 3.01539 16.3773 -1.3905e-06 -6.99897e-07 -4.81373 9.13939 0.578682 6.45672 -1.25837e-06 -1.02172e-07 -0.771616 12.5503 -6.49628 12.9942 -0.242716 4.98039 -90.0549 0.556335 -99.3675 5.34809 -7.22636e-06 -6.2814e-07 -75.1308 23.2677 0.851932 24.3286 1.87007e-05 4.90208e-06 30.7887 -13.001 -110.684 22.2916 -9.88446e-07 4.63217e-06 13.0291 5.29732 0.145955 12.9945 -0.242716 -4.98039 90.0146 -0.340547 -102.544 -5.34813 -1.25947e-06 -3.79883e-06 -71.9359 24.4719 3.56634 -24.3289 0.000322201 -8.65921e-06 23.0316 -7.34721 -106.742 -22.2915 -0.000108084 -4.47941e-06 18.1918 5.47674 -5.62376 -2.19248 -6.46944 -1.22533e-07 173.837 -1.2285 -4.87884 39.0811 -6.73843e-06 -1.23785e-05 -0.00604769 0.0447756 24.9507 40.9854 -6.48686e-06 -1.26872e-05 6.02323 0.505247 -65.7856 11.7543 -2.30145e-07 3.05095e-06 -0.117376 0.0990966 -16.5722 -2.19251 6.46944 -1.45247e-06 179.413 -6.89471 155.797 -39.0811 -0.00228153 -0.0401928 -0.136556 0.135782 44.5571 -40.9854 7.72618e-06 5.99936e-06 0.812718 -22.3974 -51.0095 -11.7543 -5.6619e-06 -5.58687e-06 0.48174 -0.534602 -20.5795 
